<svg version="1.1" xmlns="http://www.w3.org/2000/svg" viewBox="0 0 785.9724861708949 580.3651142260892" width="2357.917458512685" height="1741.0953426782676">
  <!-- svg-source:excalidraw -->
  
  <defs>
    <style>
      @font-face {
        font-family: "Virgil";
        src: url("https://excalidraw.com/Virgil.woff2");
      }
      @font-face {
        font-family: "Cascadia";
        src: url("https://excalidraw.com/Cascadia.woff2");
      }
    </style>
  </defs>
  <rect x="0" y="0" width="785.9724861708949" height="580.3651142260892" fill="#ffffff"></rect><g stroke-linecap="round"><g transform="translate(10 340.26240452932547) rotate(0 382.07208132697235 -0.8585759635348609)"><path d="M0 0 C127.36 -0.29, 636.79 -1.43, 764.14 -1.72 M0 0 C127.36 -0.29, 636.79 -1.43, 764.14 -1.72" stroke="#000000" stroke-width="4" fill="none"></path></g><g transform="translate(10 340.26240452932547) rotate(0 382.07208132697235 -0.8585759635348609)"><path d="M735.98 8.61 C745.46 5.13, 754.93 1.66, 764.14 -1.72 M735.98 8.61 C743.55 5.83, 751.12 3.06, 764.14 -1.72" stroke="#000000" stroke-width="4" fill="none"></path></g><g transform="translate(10 340.26240452932547) rotate(0 382.07208132697235 -0.8585759635348609)"><path d="M735.93 -11.91 C745.43 -8.48, 754.92 -5.05, 764.14 -1.72 M735.93 -11.91 C743.51 -9.17, 751.1 -6.43, 764.14 -1.72" stroke="#000000" stroke-width="4" fill="none"></path></g></g><g stroke-linecap="round"><g transform="translate(10 10.564203736654633) rotate(180.27545831572087 0.8585366604465889 279.9000088458857)"><path d="M0 0 C0.29 93.3, 1.43 466.5, 1.72 559.8 M0 0 C0.29 93.3, 1.43 466.5, 1.72 559.8" stroke="#000000" stroke-width="4" fill="none"></path></g><g transform="translate(10 10.564203736654633) rotate(180.27545831572087 0.8585366604465889 279.9000088458857)"><path d="M-8.63 531.64 C-4.49 542.9, -0.36 554.16, 1.72 559.8 M-8.63 531.64 C-6.3 537.98, -3.97 544.33, 1.72 559.8" stroke="#000000" stroke-width="4" fill="none"></path></g><g transform="translate(10 10.564203736654633) rotate(180.27545831572087 0.8585366604465889 279.9000088458857)"><path d="M11.89 531.58 C7.82 542.86, 3.76 554.14, 1.72 559.8 M11.89 531.58 C9.6 537.93, 7.31 544.29, 1.72 559.8" stroke="#000000" stroke-width="4" fill="none"></path></g></g><g stroke-linecap="round"><g transform="translate(161.11157055507238 19.150120584355818) rotate(0 199.19268918096418 221.51601796066404)"><path d="M0 1.54 C35.5 75.69, 146.63 447.29, 213.03 446.47 C279.42 445.64, 367.49 71.55, 398.39 -3.43 M0 1.54 C35.5 75.69, 146.63 447.29, 213.03 446.47 C279.42 445.64, 367.49 71.55, 398.39 -3.43" stroke="#f8a910" stroke-width="4" fill="none"></path></g></g><g transform="translate(756.9724861708949 354.88876278070796) rotate(0 9.5 20.5)"><text x="0" y="33" font-family="Helvetica, Segoe UI Emoji" font-size="36px" fill="#000000" text-anchor="start" style="white-space: pre;" direction="ltr">x</text></g><g stroke-linecap="round"><g transform="translate(547.4766496089833 46.624944448353006) rotate(0 -171.7177867107905 45.505233522934475)"><path d="M0 0 C-57.24 15.17, -286.2 75.84, -343.44 91.01" stroke="#96d3da" stroke-width="4.5" fill="none" stroke-dasharray="8 12"></path></g></g><g stroke-linecap="round"><g transform="translate(209.19261057478775 139.35256342129168) rotate(0 150.253112500802 17.171794392314325)"><path d="M0 0 C50.08 5.72, 250.42 28.62, 300.51 34.34" stroke="#96d3da" stroke-width="4.5" fill="none" stroke-dasharray="8 12"></path></g></g><g stroke-linecap="round"><g transform="translate(507.9816050431457 175.41330413299005) rotate(0 -138.232813192785 18.030370355849186)"><path d="M0 0 C-46.08 6.01, -230.39 30.05, -276.47 36.06" stroke="#96d3da" stroke-width="4.5" fill="none" stroke-dasharray="8 12"></path></g></g><g stroke-linecap="round"><g transform="translate(238.38458636585437 213.19119677175803) rotate(0 127.92982302419045 6.010149654008558)"><path d="M0 0 C42.64 2, 213.22 10.02, 255.86 12.02" stroke="#96d3da" stroke-width="4.5" fill="none" stroke-dasharray="8 12"></path></g></g><g stroke-linecap="round"><g transform="translate(492.52700188098925 228.64579993391447) rotate(0 -121.91967337018195 12.878835968463704)"><path d="M0 0 C-40.64 4.29, -203.2 21.46, -243.84 25.76" stroke="#96d3da" stroke-width="4.5" fill="none" stroke-dasharray="8 12"></path></g></g><g transform="translate(544.0218865810448 335.7826252311659) rotate(0 9.5 20.5)"><text x="0" y="33" font-family="Helvetica, Segoe UI Emoji" font-size="36px" fill="#000000" text-anchor="start" style="white-space: pre;" direction="ltr">x</text></g><g transform="translate(562.9107935973402 358.52007646625276) rotate(0 6 11.5)"><text x="0" y="18" font-family="Helvetica, Segoe UI Emoji" font-size="20px" fill="#000000" text-anchor="start" style="white-space: pre;" direction="ltr">0</text></g><g stroke-linecap="round" transform="translate(543.9839686922371 42.39629319107752) rotate(0 5.141226194309411 4.71277760330247)"><path d="M10.28 4.71 C10.28 4.99, 10.26 5.26, 10.2 5.53 C10.15 5.8, 10.07 6.07, 9.97 6.32 C9.87 6.58, 9.74 6.83, 9.59 7.07 C9.44 7.31, 9.27 7.53, 9.08 7.74 C8.89 7.95, 8.67 8.15, 8.45 8.32 C8.22 8.5, 7.97 8.66, 7.71 8.79 C7.45 8.93, 7.18 9.05, 6.9 9.14 C6.62 9.23, 6.33 9.31, 6.03 9.35 C5.74 9.4, 5.44 9.43, 5.14 9.43 C4.84 9.43, 4.54 9.4, 4.25 9.35 C3.96 9.31, 3.66 9.23, 3.38 9.14 C3.1 9.05, 2.83 8.93, 2.57 8.79 C2.31 8.66, 2.06 8.5, 1.84 8.32 C1.61 8.15, 1.39 7.95, 1.2 7.74 C1.01 7.53, 0.84 7.31, 0.69 7.07 C0.54 6.83, 0.41 6.58, 0.31 6.32 C0.21 6.07, 0.13 5.8, 0.08 5.53 C0.03 5.26, 0 4.99, 0 4.71 C0 4.44, 0.03 4.16, 0.08 3.89 C0.13 3.63, 0.21 3.36, 0.31 3.1 C0.41 2.84, 0.54 2.59, 0.69 2.36 C0.84 2.12, 1.01 1.89, 1.2 1.68 C1.39 1.47, 1.61 1.28, 1.84 1.1 C2.06 0.93, 2.31 0.77, 2.57 0.63 C2.83 0.49, 3.1 0.38, 3.38 0.28 C3.66 0.19, 3.96 0.12, 4.25 0.07 C4.54 0.02, 4.84 0, 5.14 0 C5.44 0, 5.74 0.02, 6.03 0.07 C6.33 0.12, 6.62 0.19, 6.9 0.28 C7.18 0.38, 7.45 0.49, 7.71 0.63 C7.97 0.77, 8.22 0.93, 8.45 1.1 C8.67 1.28, 8.89 1.47, 9.08 1.68 C9.27 1.89, 9.44 2.12, 9.59 2.36 C9.74 2.59, 9.87 2.84, 9.97 3.1 C10.07 3.36, 10.15 3.63, 10.2 3.89 C10.26 4.16, 10.27 4.58, 10.28 4.71 C10.3 4.85, 10.3 4.58, 10.28 4.71" stroke="none" stroke-width="0" fill="#ff3747"></path><path d="M10.28 4.71 C10.28 4.99, 10.26 5.26, 10.2 5.53 C10.15 5.8, 10.07 6.07, 9.97 6.32 C9.87 6.58, 9.74 6.83, 9.59 7.07 C9.44 7.31, 9.27 7.53, 9.08 7.74 C8.89 7.95, 8.67 8.15, 8.45 8.32 C8.22 8.5, 7.97 8.66, 7.71 8.79 C7.45 8.93, 7.18 9.05, 6.9 9.14 C6.62 9.23, 6.33 9.31, 6.03 9.35 C5.74 9.4, 5.44 9.43, 5.14 9.43 C4.84 9.43, 4.54 9.4, 4.25 9.35 C3.96 9.31, 3.66 9.23, 3.38 9.14 C3.1 9.05, 2.83 8.93, 2.57 8.79 C2.31 8.66, 2.06 8.5, 1.84 8.32 C1.61 8.15, 1.39 7.95, 1.2 7.74 C1.01 7.53, 0.84 7.31, 0.69 7.07 C0.54 6.83, 0.41 6.58, 0.31 6.32 C0.21 6.07, 0.13 5.8, 0.08 5.53 C0.03 5.26, 0 4.99, 0 4.71 C0 4.44, 0.03 4.16, 0.08 3.89 C0.13 3.63, 0.21 3.36, 0.31 3.1 C0.41 2.84, 0.54 2.59, 0.69 2.36 C0.84 2.12, 1.01 1.89, 1.2 1.68 C1.39 1.47, 1.61 1.28, 1.84 1.1 C2.06 0.93, 2.31 0.77, 2.57 0.63 C2.83 0.49, 3.1 0.38, 3.38 0.28 C3.66 0.19, 3.96 0.12, 4.25 0.07 C4.54 0.02, 4.84 0, 5.14 0 C5.44 0, 5.74 0.02, 6.03 0.07 C6.33 0.12, 6.62 0.19, 6.9 0.28 C7.18 0.38, 7.45 0.49, 7.71 0.63 C7.97 0.77, 8.22 0.93, 8.45 1.1 C8.67 1.28, 8.89 1.47, 9.08 1.68 C9.27 1.89, 9.44 2.12, 9.59 2.36 C9.74 2.59, 9.87 2.84, 9.97 3.1 C10.07 3.36, 10.15 3.63, 10.2 3.89 C10.26 4.16, 10.27 4.58, 10.28 4.71 C10.3 4.85, 10.3 4.58, 10.28 4.71" stroke="#ff3747" stroke-width="4" fill="none"></path></g><g stroke-linecap="round"><g transform="translate(549.268219255647 62.10437923518697) rotate(0 0.4284485910067133 137.95623948266848)"><path d="M0 0 C0.14 45.99, 0.71 229.93, 0.86 275.91" stroke="#1f3d51" stroke-width="1.5" fill="none" stroke-dasharray="1.5 7"></path></g></g><g stroke-linecap="round" transform="translate(202.23552958865753 132.79621979471773) rotate(0 5.141226194309411 4.71277760330247)"><path d="M10.28 4.71 C10.28 4.99, 10.26 5.26, 10.2 5.53 C10.15 5.8, 10.07 6.07, 9.97 6.32 C9.87 6.58, 9.74 6.83, 9.59 7.07 C9.44 7.31, 9.27 7.53, 9.08 7.74 C8.89 7.95, 8.67 8.15, 8.45 8.32 C8.22 8.5, 7.97 8.66, 7.71 8.79 C7.45 8.93, 7.18 9.05, 6.9 9.14 C6.62 9.23, 6.33 9.31, 6.03 9.35 C5.74 9.4, 5.44 9.43, 5.14 9.43 C4.84 9.43, 4.54 9.4, 4.25 9.35 C3.96 9.31, 3.66 9.23, 3.38 9.14 C3.1 9.05, 2.83 8.93, 2.57 8.79 C2.31 8.66, 2.06 8.5, 1.84 8.32 C1.61 8.15, 1.39 7.95, 1.2 7.74 C1.01 7.53, 0.84 7.31, 0.69 7.07 C0.54 6.83, 0.41 6.58, 0.31 6.32 C0.21 6.07, 0.13 5.8, 0.08 5.53 C0.03 5.26, 0 4.99, 0 4.71 C0 4.44, 0.03 4.16, 0.08 3.89 C0.13 3.63, 0.21 3.36, 0.31 3.1 C0.41 2.84, 0.54 2.59, 0.69 2.36 C0.84 2.12, 1.01 1.89, 1.2 1.68 C1.39 1.47, 1.61 1.28, 1.84 1.1 C2.06 0.93, 2.31 0.77, 2.57 0.63 C2.83 0.49, 3.1 0.38, 3.38 0.28 C3.66 0.19, 3.96 0.12, 4.25 0.07 C4.54 0.02, 4.84 0, 5.14 0 C5.44 0, 5.74 0.02, 6.03 0.07 C6.33 0.12, 6.62 0.19, 6.9 0.28 C7.18 0.38, 7.45 0.49, 7.71 0.63 C7.97 0.77, 8.22 0.93, 8.45 1.1 C8.67 1.28, 8.89 1.47, 9.08 1.68 C9.27 1.89, 9.44 2.12, 9.59 2.36 C9.74 2.59, 9.87 2.84, 9.97 3.1 C10.07 3.36, 10.15 3.63, 10.2 3.89 C10.26 4.16, 10.27 4.58, 10.28 4.71 C10.3 4.85, 10.3 4.58, 10.28 4.71" stroke="none" stroke-width="0" fill="#ff3747"></path><path d="M10.28 4.71 C10.28 4.99, 10.26 5.26, 10.2 5.53 C10.15 5.8, 10.07 6.07, 9.97 6.32 C9.87 6.58, 9.74 6.83, 9.59 7.07 C9.44 7.31, 9.27 7.53, 9.08 7.74 C8.89 7.95, 8.67 8.15, 8.45 8.32 C8.22 8.5, 7.97 8.66, 7.71 8.79 C7.45 8.93, 7.18 9.05, 6.9 9.14 C6.62 9.23, 6.33 9.31, 6.03 9.35 C5.74 9.4, 5.44 9.43, 5.14 9.43 C4.84 9.43, 4.54 9.4, 4.25 9.35 C3.96 9.31, 3.66 9.23, 3.38 9.14 C3.1 9.05, 2.83 8.93, 2.57 8.79 C2.31 8.66, 2.06 8.5, 1.84 8.32 C1.61 8.15, 1.39 7.95, 1.2 7.74 C1.01 7.53, 0.84 7.31, 0.69 7.07 C0.54 6.83, 0.41 6.58, 0.31 6.32 C0.21 6.07, 0.13 5.8, 0.08 5.53 C0.03 5.26, 0 4.99, 0 4.71 C0 4.44, 0.03 4.16, 0.08 3.89 C0.13 3.63, 0.21 3.36, 0.31 3.1 C0.41 2.84, 0.54 2.59, 0.69 2.36 C0.84 2.12, 1.01 1.89, 1.2 1.68 C1.39 1.47, 1.61 1.28, 1.84 1.1 C2.06 0.93, 2.31 0.77, 2.57 0.63 C2.83 0.49, 3.1 0.38, 3.38 0.28 C3.66 0.19, 3.96 0.12, 4.25 0.07 C4.54 0.02, 4.84 0, 5.14 0 C5.44 0, 5.74 0.02, 6.03 0.07 C6.33 0.12, 6.62 0.19, 6.9 0.28 C7.18 0.38, 7.45 0.49, 7.71 0.63 C7.97 0.77, 8.22 0.93, 8.45 1.1 C8.67 1.28, 8.89 1.47, 9.08 1.68 C9.27 1.89, 9.44 2.12, 9.59 2.36 C9.74 2.59, 9.87 2.84, 9.97 3.1 C10.07 3.36, 10.15 3.63, 10.2 3.89 C10.26 4.16, 10.27 4.58, 10.28 4.71 C10.3 4.85, 10.3 4.58, 10.28 4.71" stroke="#ff3747" stroke-width="4" fill="none"></path></g><g stroke-linecap="round" transform="translate(505.56787505290436 170.07010970345976) rotate(0 5.141226194309411 4.71277760330247)"><path d="M10.28 4.71 C10.28 4.99, 10.26 5.26, 10.2 5.53 C10.15 5.8, 10.07 6.07, 9.97 6.32 C9.87 6.58, 9.74 6.83, 9.59 7.07 C9.44 7.31, 9.27 7.53, 9.08 7.74 C8.89 7.95, 8.67 8.15, 8.45 8.32 C8.22 8.5, 7.97 8.66, 7.71 8.79 C7.45 8.93, 7.18 9.05, 6.9 9.14 C6.62 9.23, 6.33 9.31, 6.03 9.35 C5.74 9.4, 5.44 9.43, 5.14 9.43 C4.84 9.43, 4.54 9.4, 4.25 9.35 C3.96 9.31, 3.66 9.23, 3.38 9.14 C3.1 9.05, 2.83 8.93, 2.57 8.79 C2.31 8.66, 2.06 8.5, 1.84 8.32 C1.61 8.15, 1.39 7.95, 1.2 7.74 C1.01 7.53, 0.84 7.31, 0.69 7.07 C0.54 6.83, 0.41 6.58, 0.31 6.32 C0.21 6.07, 0.13 5.8, 0.08 5.53 C0.03 5.26, 0 4.99, 0 4.71 C0 4.44, 0.03 4.16, 0.08 3.89 C0.13 3.63, 0.21 3.36, 0.31 3.1 C0.41 2.84, 0.54 2.59, 0.69 2.36 C0.84 2.12, 1.01 1.89, 1.2 1.68 C1.39 1.47, 1.61 1.28, 1.84 1.1 C2.06 0.93, 2.31 0.77, 2.57 0.63 C2.83 0.49, 3.1 0.38, 3.38 0.28 C3.66 0.19, 3.96 0.12, 4.25 0.07 C4.54 0.02, 4.84 0, 5.14 0 C5.44 0, 5.74 0.02, 6.03 0.07 C6.33 0.12, 6.62 0.19, 6.9 0.28 C7.18 0.38, 7.45 0.49, 7.71 0.63 C7.97 0.77, 8.22 0.93, 8.45 1.1 C8.67 1.28, 8.89 1.47, 9.08 1.68 C9.27 1.89, 9.44 2.12, 9.59 2.36 C9.74 2.59, 9.87 2.84, 9.97 3.1 C10.07 3.36, 10.15 3.63, 10.2 3.89 C10.26 4.16, 10.27 4.58, 10.28 4.71 C10.3 4.85, 10.3 4.58, 10.28 4.71" stroke="none" stroke-width="0" fill="#ff3747"></path><path d="M10.28 4.71 C10.28 4.99, 10.26 5.26, 10.2 5.53 C10.15 5.8, 10.07 6.07, 9.97 6.32 C9.87 6.58, 9.74 6.83, 9.59 7.07 C9.44 7.31, 9.27 7.53, 9.08 7.74 C8.89 7.95, 8.67 8.15, 8.45 8.32 C8.22 8.5, 7.97 8.66, 7.71 8.79 C7.45 8.93, 7.18 9.05, 6.9 9.14 C6.62 9.23, 6.33 9.31, 6.03 9.35 C5.74 9.4, 5.44 9.43, 5.14 9.43 C4.84 9.43, 4.54 9.4, 4.25 9.35 C3.96 9.31, 3.66 9.23, 3.38 9.14 C3.1 9.05, 2.83 8.93, 2.57 8.79 C2.31 8.66, 2.06 8.5, 1.84 8.32 C1.61 8.15, 1.39 7.95, 1.2 7.74 C1.01 7.53, 0.84 7.31, 0.69 7.07 C0.54 6.83, 0.41 6.58, 0.31 6.32 C0.21 6.07, 0.13 5.8, 0.08 5.53 C0.03 5.26, 0 4.99, 0 4.71 C0 4.44, 0.03 4.16, 0.08 3.89 C0.13 3.63, 0.21 3.36, 0.31 3.1 C0.41 2.84, 0.54 2.59, 0.69 2.36 C0.84 2.12, 1.01 1.89, 1.2 1.68 C1.39 1.47, 1.61 1.28, 1.84 1.1 C2.06 0.93, 2.31 0.77, 2.57 0.63 C2.83 0.49, 3.1 0.38, 3.38 0.28 C3.66 0.19, 3.96 0.12, 4.25 0.07 C4.54 0.02, 4.84 0, 5.14 0 C5.44 0, 5.74 0.02, 6.03 0.07 C6.33 0.12, 6.62 0.19, 6.9 0.28 C7.18 0.38, 7.45 0.49, 7.71 0.63 C7.97 0.77, 8.22 0.93, 8.45 1.1 C8.67 1.28, 8.89 1.47, 9.08 1.68 C9.27 1.89, 9.44 2.12, 9.59 2.36 C9.74 2.59, 9.87 2.84, 9.97 3.1 C10.07 3.36, 10.15 3.63, 10.2 3.89 C10.26 4.16, 10.27 4.58, 10.28 4.71 C10.3 4.85, 10.3 4.58, 10.28 4.71" stroke="#ff3747" stroke-width="4" fill="none"></path></g><g stroke-linecap="round" transform="translate(229.6553764753453 207.3439996122018) rotate(0 5.141226194309411 4.71277760330247)"><path d="M10.28 4.71 C10.28 4.99, 10.26 5.26, 10.2 5.53 C10.15 5.8, 10.07 6.07, 9.97 6.32 C9.87 6.58, 9.74 6.83, 9.59 7.07 C9.44 7.31, 9.27 7.53, 9.08 7.74 C8.89 7.95, 8.67 8.15, 8.45 8.32 C8.22 8.5, 7.97 8.66, 7.71 8.79 C7.45 8.93, 7.18 9.05, 6.9 9.14 C6.62 9.23, 6.33 9.31, 6.03 9.35 C5.74 9.4, 5.44 9.43, 5.14 9.43 C4.84 9.43, 4.54 9.4, 4.25 9.35 C3.96 9.31, 3.66 9.23, 3.38 9.14 C3.1 9.05, 2.83 8.93, 2.57 8.79 C2.31 8.66, 2.06 8.5, 1.84 8.32 C1.61 8.15, 1.39 7.95, 1.2 7.74 C1.01 7.53, 0.84 7.31, 0.69 7.07 C0.54 6.83, 0.41 6.58, 0.31 6.32 C0.21 6.07, 0.13 5.8, 0.08 5.53 C0.03 5.26, 0 4.99, 0 4.71 C0 4.44, 0.03 4.16, 0.08 3.89 C0.13 3.63, 0.21 3.36, 0.31 3.1 C0.41 2.84, 0.54 2.59, 0.69 2.36 C0.84 2.12, 1.01 1.89, 1.2 1.68 C1.39 1.47, 1.61 1.28, 1.84 1.1 C2.06 0.93, 2.31 0.77, 2.57 0.63 C2.83 0.49, 3.1 0.38, 3.38 0.28 C3.66 0.19, 3.96 0.12, 4.25 0.07 C4.54 0.02, 4.84 0, 5.14 0 C5.44 0, 5.74 0.02, 6.03 0.07 C6.33 0.12, 6.62 0.19, 6.9 0.28 C7.18 0.38, 7.45 0.49, 7.71 0.63 C7.97 0.77, 8.22 0.93, 8.45 1.1 C8.67 1.28, 8.89 1.47, 9.08 1.68 C9.27 1.89, 9.44 2.12, 9.59 2.36 C9.74 2.59, 9.87 2.84, 9.97 3.1 C10.07 3.36, 10.15 3.63, 10.2 3.89 C10.26 4.16, 10.27 4.58, 10.28 4.71 C10.3 4.85, 10.3 4.58, 10.28 4.71" stroke="none" stroke-width="0" fill="#ff3747"></path><path d="M10.28 4.71 C10.28 4.99, 10.26 5.26, 10.2 5.53 C10.15 5.8, 10.07 6.07, 9.97 6.32 C9.87 6.58, 9.74 6.83, 9.59 7.07 C9.44 7.31, 9.27 7.53, 9.08 7.74 C8.89 7.95, 8.67 8.15, 8.45 8.32 C8.22 8.5, 7.97 8.66, 7.71 8.79 C7.45 8.93, 7.18 9.05, 6.9 9.14 C6.62 9.23, 6.33 9.31, 6.03 9.35 C5.74 9.4, 5.44 9.43, 5.14 9.43 C4.84 9.43, 4.54 9.4, 4.25 9.35 C3.96 9.31, 3.66 9.23, 3.38 9.14 C3.1 9.05, 2.83 8.93, 2.57 8.79 C2.31 8.66, 2.06 8.5, 1.84 8.32 C1.61 8.15, 1.39 7.95, 1.2 7.74 C1.01 7.53, 0.84 7.31, 0.69 7.07 C0.54 6.83, 0.41 6.58, 0.31 6.32 C0.21 6.07, 0.13 5.8, 0.08 5.53 C0.03 5.26, 0 4.99, 0 4.71 C0 4.44, 0.03 4.16, 0.08 3.89 C0.13 3.63, 0.21 3.36, 0.31 3.1 C0.41 2.84, 0.54 2.59, 0.69 2.36 C0.84 2.12, 1.01 1.89, 1.2 1.68 C1.39 1.47, 1.61 1.28, 1.84 1.1 C2.06 0.93, 2.31 0.77, 2.57 0.63 C2.83 0.49, 3.1 0.38, 3.38 0.28 C3.66 0.19, 3.96 0.12, 4.25 0.07 C4.54 0.02, 4.84 0, 5.14 0 C5.44 0, 5.74 0.02, 6.03 0.07 C6.33 0.12, 6.62 0.19, 6.9 0.28 C7.18 0.38, 7.45 0.49, 7.71 0.63 C7.97 0.77, 8.22 0.93, 8.45 1.1 C8.67 1.28, 8.89 1.47, 9.08 1.68 C9.27 1.89, 9.44 2.12, 9.59 2.36 C9.74 2.59, 9.87 2.84, 9.97 3.1 C10.07 3.36, 10.15 3.63, 10.2 3.89 C10.26 4.16, 10.27 4.58, 10.28 4.71 C10.3 4.85, 10.3 4.58, 10.28 4.71" stroke="#ff3747" stroke-width="4" fill="none"></path></g><g stroke-linecap="round" transform="translate(487.57358337282153 223.62453615270005) rotate(0 5.141226194309411 4.71277760330247)"><path d="M10.28 4.71 C10.28 4.99, 10.26 5.26, 10.2 5.53 C10.15 5.8, 10.07 6.07, 9.97 6.32 C9.87 6.58, 9.74 6.83, 9.59 7.07 C9.44 7.31, 9.27 7.53, 9.08 7.74 C8.89 7.95, 8.67 8.15, 8.45 8.32 C8.22 8.5, 7.97 8.66, 7.71 8.79 C7.45 8.93, 7.18 9.05, 6.9 9.14 C6.62 9.23, 6.33 9.31, 6.03 9.35 C5.74 9.4, 5.44 9.43, 5.14 9.43 C4.84 9.43, 4.54 9.4, 4.25 9.35 C3.96 9.31, 3.66 9.23, 3.38 9.14 C3.1 9.05, 2.83 8.93, 2.57 8.79 C2.31 8.66, 2.06 8.5, 1.84 8.32 C1.61 8.15, 1.39 7.95, 1.2 7.74 C1.01 7.53, 0.84 7.31, 0.69 7.07 C0.54 6.83, 0.41 6.58, 0.31 6.32 C0.21 6.07, 0.13 5.8, 0.08 5.53 C0.03 5.26, 0 4.99, 0 4.71 C0 4.44, 0.03 4.16, 0.08 3.89 C0.13 3.63, 0.21 3.36, 0.31 3.1 C0.41 2.84, 0.54 2.59, 0.69 2.36 C0.84 2.12, 1.01 1.89, 1.2 1.68 C1.39 1.47, 1.61 1.28, 1.84 1.1 C2.06 0.93, 2.31 0.77, 2.57 0.63 C2.83 0.49, 3.1 0.38, 3.38 0.28 C3.66 0.19, 3.96 0.12, 4.25 0.07 C4.54 0.02, 4.84 0, 5.14 0 C5.44 0, 5.74 0.02, 6.03 0.07 C6.33 0.12, 6.62 0.19, 6.9 0.28 C7.18 0.38, 7.45 0.49, 7.71 0.63 C7.97 0.77, 8.22 0.93, 8.45 1.1 C8.67 1.28, 8.89 1.47, 9.08 1.68 C9.27 1.89, 9.44 2.12, 9.59 2.36 C9.74 2.59, 9.87 2.84, 9.97 3.1 C10.07 3.36, 10.15 3.63, 10.2 3.89 C10.26 4.16, 10.27 4.58, 10.28 4.71 C10.3 4.85, 10.3 4.58, 10.28 4.71" stroke="none" stroke-width="0" fill="#ff3747"></path><path d="M10.28 4.71 C10.28 4.99, 10.26 5.26, 10.2 5.53 C10.15 5.8, 10.07 6.07, 9.97 6.32 C9.87 6.58, 9.74 6.83, 9.59 7.07 C9.44 7.31, 9.27 7.53, 9.08 7.74 C8.89 7.95, 8.67 8.15, 8.45 8.32 C8.22 8.5, 7.97 8.66, 7.71 8.79 C7.45 8.93, 7.18 9.05, 6.9 9.14 C6.62 9.23, 6.33 9.31, 6.03 9.35 C5.74 9.4, 5.44 9.43, 5.14 9.43 C4.84 9.43, 4.54 9.4, 4.25 9.35 C3.96 9.31, 3.66 9.23, 3.38 9.14 C3.1 9.05, 2.83 8.93, 2.57 8.79 C2.31 8.66, 2.06 8.5, 1.84 8.32 C1.61 8.15, 1.39 7.95, 1.2 7.74 C1.01 7.53, 0.84 7.31, 0.69 7.07 C0.54 6.83, 0.41 6.58, 0.31 6.32 C0.21 6.07, 0.13 5.8, 0.08 5.53 C0.03 5.26, 0 4.99, 0 4.71 C0 4.44, 0.03 4.16, 0.08 3.89 C0.13 3.63, 0.21 3.36, 0.31 3.1 C0.41 2.84, 0.54 2.59, 0.69 2.36 C0.84 2.12, 1.01 1.89, 1.2 1.68 C1.39 1.47, 1.61 1.28, 1.84 1.1 C2.06 0.93, 2.31 0.77, 2.57 0.63 C2.83 0.49, 3.1 0.38, 3.38 0.28 C3.66 0.19, 3.96 0.12, 4.25 0.07 C4.54 0.02, 4.84 0, 5.14 0 C5.44 0, 5.74 0.02, 6.03 0.07 C6.33 0.12, 6.62 0.19, 6.9 0.28 C7.18 0.38, 7.45 0.49, 7.71 0.63 C7.97 0.77, 8.22 0.93, 8.45 1.1 C8.67 1.28, 8.89 1.47, 9.08 1.68 C9.27 1.89, 9.44 2.12, 9.59 2.36 C9.74 2.59, 9.87 2.84, 9.97 3.1 C10.07 3.36, 10.15 3.63, 10.2 3.89 C10.26 4.16, 10.27 4.58, 10.28 4.71 C10.3 4.85, 10.3 4.58, 10.28 4.71" stroke="#ff3747" stroke-width="4" fill="none"></path></g><g stroke-linecap="round" transform="translate(244.22215787625987 249.33070634868938) rotate(0 5.141226194309411 4.71277760330247)"><path d="M10.28 4.71 C10.28 4.99, 10.26 5.26, 10.2 5.53 C10.15 5.8, 10.07 6.07, 9.97 6.32 C9.87 6.58, 9.74 6.83, 9.59 7.07 C9.44 7.31, 9.27 7.53, 9.08 7.74 C8.89 7.95, 8.67 8.15, 8.45 8.32 C8.22 8.5, 7.97 8.66, 7.71 8.79 C7.45 8.93, 7.18 9.05, 6.9 9.14 C6.62 9.23, 6.33 9.31, 6.03 9.35 C5.74 9.4, 5.44 9.43, 5.14 9.43 C4.84 9.43, 4.54 9.4, 4.25 9.35 C3.96 9.31, 3.66 9.23, 3.38 9.14 C3.1 9.05, 2.83 8.93, 2.57 8.79 C2.31 8.66, 2.06 8.5, 1.84 8.32 C1.61 8.15, 1.39 7.95, 1.2 7.74 C1.01 7.53, 0.84 7.31, 0.69 7.07 C0.54 6.83, 0.41 6.58, 0.31 6.32 C0.21 6.07, 0.13 5.8, 0.08 5.53 C0.03 5.26, 0 4.99, 0 4.71 C0 4.44, 0.03 4.16, 0.08 3.89 C0.13 3.63, 0.21 3.36, 0.31 3.1 C0.41 2.84, 0.54 2.59, 0.69 2.36 C0.84 2.12, 1.01 1.89, 1.2 1.68 C1.39 1.47, 1.61 1.28, 1.84 1.1 C2.06 0.93, 2.31 0.77, 2.57 0.63 C2.83 0.49, 3.1 0.38, 3.38 0.28 C3.66 0.19, 3.96 0.12, 4.25 0.07 C4.54 0.02, 4.84 0, 5.14 0 C5.44 0, 5.74 0.02, 6.03 0.07 C6.33 0.12, 6.62 0.19, 6.9 0.28 C7.18 0.38, 7.45 0.49, 7.71 0.63 C7.97 0.77, 8.22 0.93, 8.45 1.1 C8.67 1.28, 8.89 1.47, 9.08 1.68 C9.27 1.89, 9.44 2.12, 9.59 2.36 C9.74 2.59, 9.87 2.84, 9.97 3.1 C10.07 3.36, 10.15 3.63, 10.2 3.89 C10.26 4.16, 10.27 4.58, 10.28 4.71 C10.3 4.85, 10.3 4.58, 10.28 4.71" stroke="none" stroke-width="0" fill="#ff3747"></path><path d="M10.28 4.71 C10.28 4.99, 10.26 5.26, 10.2 5.53 C10.15 5.8, 10.07 6.07, 9.97 6.32 C9.87 6.58, 9.74 6.83, 9.59 7.07 C9.44 7.31, 9.27 7.53, 9.08 7.74 C8.89 7.95, 8.67 8.15, 8.45 8.32 C8.22 8.5, 7.97 8.66, 7.71 8.79 C7.45 8.93, 7.18 9.05, 6.9 9.14 C6.62 9.23, 6.33 9.31, 6.03 9.35 C5.74 9.4, 5.44 9.43, 5.14 9.43 C4.84 9.43, 4.54 9.4, 4.25 9.35 C3.96 9.31, 3.66 9.23, 3.38 9.14 C3.1 9.05, 2.83 8.93, 2.57 8.79 C2.31 8.66, 2.06 8.5, 1.84 8.32 C1.61 8.15, 1.39 7.95, 1.2 7.74 C1.01 7.53, 0.84 7.31, 0.69 7.07 C0.54 6.83, 0.41 6.58, 0.31 6.32 C0.21 6.07, 0.13 5.8, 0.08 5.53 C0.03 5.26, 0 4.99, 0 4.71 C0 4.44, 0.03 4.16, 0.08 3.89 C0.13 3.63, 0.21 3.36, 0.31 3.1 C0.41 2.84, 0.54 2.59, 0.69 2.36 C0.84 2.12, 1.01 1.89, 1.2 1.68 C1.39 1.47, 1.61 1.28, 1.84 1.1 C2.06 0.93, 2.31 0.77, 2.57 0.63 C2.83 0.49, 3.1 0.38, 3.38 0.28 C3.66 0.19, 3.96 0.12, 4.25 0.07 C4.54 0.02, 4.84 0, 5.14 0 C5.44 0, 5.74 0.02, 6.03 0.07 C6.33 0.12, 6.62 0.19, 6.9 0.28 C7.18 0.38, 7.45 0.49, 7.71 0.63 C7.97 0.77, 8.22 0.93, 8.45 1.1 C8.67 1.28, 8.89 1.47, 9.08 1.68 C9.27 1.89, 9.44 2.12, 9.59 2.36 C9.74 2.59, 9.87 2.84, 9.97 3.1 C10.07 3.36, 10.15 3.63, 10.2 3.89 C10.26 4.16, 10.27 4.58, 10.28 4.71 C10.3 4.85, 10.3 4.58, 10.28 4.71" stroke="#ff3747" stroke-width="4" fill="none"></path></g><g transform="translate(194.07540509280625 331.4286298990358) rotate(0 9.5 20.5)"><text x="0" y="33" font-family="Helvetica, Segoe UI Emoji" font-size="36px" fill="#000000" text-anchor="start" style="white-space: pre;" direction="ltr">x</text></g><g transform="translate(212.96431210910168 354.16608113412286) rotate(0 6 11.5)"><text x="0" y="18" font-family="Helvetica, Segoe UI Emoji" font-size="20px" fill="#000000" text-anchor="start" style="white-space: pre;" direction="ltr">1</text></g><g stroke-linecap="round"><g transform="translate(511.99429012246196 182.06628781333012) rotate(0 -0.428448591006827 76.68997374196425)"><path d="M0 0 C-0.14 25.56, -0.71 127.82, -0.86 153.38" stroke="#1f3d51" stroke-width="1.5" fill="none" stroke-dasharray="1.5 7"></path></g></g><g stroke-linecap="round"><g transform="translate(206.8280376536443 146.34682435382825) rotate(0 -0.00003922444307136175 95.96957197062397)"><path d="M0 0 C0 31.99, 0 159.95, 0 191.94" stroke="#1f3d51" stroke-width="1.5" fill="none" stroke-dasharray="1.5 7"></path></g></g><g transform="translate(505.97550949424794 335.7129981357744) rotate(0 9.5 20.5)"><text x="0" y="33" font-family="Helvetica, Segoe UI Emoji" font-size="36px" fill="#000000" text-anchor="start" style="white-space: pre;" direction="ltr">x</text></g><g transform="translate(524.8644165105434 358.45044937086146) rotate(0 6 11.5)"><text x="0" y="18" font-family="Helvetica, Segoe UI Emoji" font-size="20px" fill="#000000" text-anchor="start" style="white-space: pre;" direction="ltr">2</text></g><g stroke-linecap="round"><g transform="translate(233.5113353455206 219.76854786419284) rotate(0 0.4284093665637556 60.40939797702299)"><path d="M0 0 C0.14 20.14, 0.71 100.68, 0.86 120.82" stroke="#1f3d51" stroke-width="1.5" fill="none" stroke-dasharray="1.5 7"></path></g></g><g transform="translate(229.63467999901127 330.99928222063346) rotate(0 9.5 20.5)"><text x="0" y="33" font-family="Helvetica, Segoe UI Emoji" font-size="36px" fill="#000000" text-anchor="start" style="white-space: pre;" direction="ltr">x</text></g><g transform="translate(248.52358701530716 353.7367334557205) rotate(0 6 11.5)"><text x="0" y="18" font-family="Helvetica, Segoe UI Emoji" font-size="20px" fill="#000000" text-anchor="start" style="white-space: pre;" direction="ltr">3</text></g><g transform="translate(114.41811815985193 10) rotate(0 20.5 16)"><text x="0" y="25" font-family="Helvetica, Segoe UI Emoji" font-size="28px" fill="#000000" text-anchor="start" style="white-space: pre;" direction="ltr">f(x)</text></g></svg>